<svg width="24" height="24" viewBox="0 0 24 24" fill="none" xmlns="http://www.w3.org/2000/svg">
<path d="M11.9955 2.39044C11.0715 2.39044 10.4607 3.03964 10.1139 3.62284C9.76112 4.21444 9.57392 4.90684 9.54872 5.35324C9.49952 6.24124 9.63272 7.01884 10.0755 7.58044C10.5363 8.16604 11.2275 8.39044 11.9955 8.39044C12.7743 8.39044 13.4631 8.13964 13.9215 7.55404C14.3643 6.98764 14.5071 6.21604 14.4495 5.34724C14.4219 4.92484 14.2323 4.23604 13.8807 3.64204C13.5363 3.06004 12.9255 2.39044 11.9967 2.39044H11.9955ZM10.7475 5.41924C10.7595 5.17564 10.8867 4.67044 11.1447 4.23604C11.4087 3.79444 11.7027 3.59044 11.9967 3.59044C12.2835 3.59044 12.5787 3.79684 12.8487 4.25164C13.1091 4.69564 13.2387 5.20324 13.2531 5.42524C13.2999 6.14524 13.1643 6.57484 12.9771 6.81484C12.8055 7.03324 12.5151 7.19044 11.9955 7.19044C11.4555 7.19044 11.1771 7.04044 11.0187 6.83764C10.8387 6.60964 10.7043 6.18484 10.7463 5.41924H10.7475Z" fill="white"/>
<path d="M6.00039 9.60004C5.36387 9.60004 4.75342 9.85289 4.30333 10.303C3.85325 10.7531 3.60039 11.3635 3.60039 12V19.2H3.00039C2.84126 19.2 2.68865 19.2632 2.57613 19.3758C2.4636 19.4883 2.40039 19.6409 2.40039 19.8C2.40039 19.9592 2.4636 20.1118 2.57613 20.2243C2.68865 20.3368 2.84126 20.4 3.00039 20.4H21.0004C21.1595 20.4 21.3121 20.3368 21.4247 20.2243C21.5372 20.1118 21.6004 19.9592 21.6004 19.8C21.6004 19.6409 21.5372 19.4883 21.4247 19.3758C21.3121 19.2632 21.1595 19.2 21.0004 19.2H20.4004V12C20.4004 11.3635 20.1475 10.7531 19.6974 10.303C19.2474 9.85289 18.6369 9.60004 18.0004 9.60004H6.00039ZM19.2004 19.2H4.80039V14.5416L6.65439 16.1976C6.88977 16.4081 7.16437 16.5701 7.46247 16.6743C7.76056 16.7785 8.07628 16.8228 8.39154 16.8048C8.70679 16.7867 9.01539 16.7066 9.29963 16.5691C9.58388 16.4315 9.83819 16.2392 10.048 16.0032L11.104 14.8152C11.2166 14.6885 11.3547 14.5871 11.5093 14.5177C11.6639 14.4483 11.8315 14.4123 12.001 14.4123C12.1705 14.4123 12.338 14.4483 12.4927 14.5177C12.6473 14.5871 12.7854 14.6885 12.898 14.8152L13.9528 16.0032C14.1625 16.2395 14.4168 16.432 14.7012 16.5698C14.9855 16.7075 15.2942 16.7878 15.6096 16.806C15.925 16.8241 16.2409 16.7799 16.5391 16.6757C16.8374 16.5715 17.1121 16.4094 17.3476 16.1988L19.2004 14.5416V19.2ZM19.2004 12.9312L16.5472 15.3036C16.4295 15.4089 16.2922 15.4899 16.1432 15.542C15.9941 15.5941 15.8362 15.6162 15.6786 15.6072C15.521 15.5982 15.3667 15.5581 15.2246 15.4893C15.0824 15.4206 14.9553 15.3244 14.8504 15.2064L13.7944 14.0184C13.5692 13.7651 13.2929 13.5622 12.9837 13.4234C12.6745 13.2845 12.3394 13.2127 12.0004 13.2127C11.6614 13.2127 11.3263 13.2845 11.0171 13.4234C10.7078 13.5622 10.4316 13.7651 10.2064 14.0184L9.15039 15.2064C9.04549 15.3244 8.91834 15.4206 8.77621 15.4893C8.63409 15.5581 8.47979 15.5982 8.32216 15.6072C8.16454 15.6162 8.00667 15.5941 7.85763 15.542C7.70858 15.4899 7.57128 15.4089 7.45359 15.3036L4.80039 12.9312V12C4.80039 11.6818 4.92682 11.3766 5.15186 11.1515C5.37691 10.9265 5.68213 10.8 6.00039 10.8H18.0004C18.3187 10.8 18.6239 10.9265 18.8489 11.1515C19.074 11.3766 19.2004 11.6818 19.2004 12V12.9312Z" fill="white"/>
</svg>
