<svg width="31" height="31" viewBox="0 0 31 31" fill="none" xmlns="http://www.w3.org/2000/svg">
<g clip-path="url(#clip0_261_358)">
<path d="M24.7672 11.8512C23.4084 8.19557 19.1413 6.47445 15.5206 7.92703C13.1183 8.92667 11.5788 11.0992 11.2794 13.4509C11.1111 15.007 10.1124 16.3384 8.70638 16.8611L8.51892 16.9308C6.92544 17.5231 6.15985 19.1946 6.75217 20.788C8.14586 24.5374 13.181 23.7326 20.6797 20.9452C20.6797 20.9452 27.241 18.5063 24.7672 11.8512ZM8.62684 20.0912C8.41779 19.5288 8.65336 19.0145 9.21576 18.8054L9.40323 18.7357C11.4654 17.9692 12.9808 16.019 13.3151 13.7611C13.5075 11.9826 14.6588 10.4878 16.3111 9.76687C17.5297 9.31392 19.0162 9.2948 20.2671 9.78998C21.518 10.2852 22.4396 11.3295 22.8577 12.4543C24.565 17.0472 20.7327 18.7918 19.9828 19.0706C10.7032 22.5199 9.07979 21.3097 8.62684 20.0912ZM20.877 17.458L15.733 11.3687C15.9445 11.0767 16.2846 10.8436 16.7533 10.6694C17.4094 10.4255 18.0415 10.4039 18.8022 10.4412L22.3949 14.6533C22.2506 15.9872 21.6161 16.8632 20.877 17.458ZM12.8365 17.3529L14.7495 19.629C13.3086 20.0579 12.173 20.1599 11.4472 20.2164L10.5256 19.172C11.4629 18.8236 12.202 18.2288 12.8365 17.3529ZM19.4469 18.2029C18.3221 18.621 17.2911 19.0043 16.4126 19.2241L13.6129 15.9974C13.9074 15.3545 14.167 14.6179 14.2043 13.8573C14.2524 13.4126 14.3942 12.9332 14.5709 12.5474L19.4469 18.2029Z" fill="#FECCBC"/>
</g>
<defs>
<clipPath id="clip0_261_358">
<rect width="24" height="24" fill="white" transform="translate(22.4961) rotate(69.6092)"/>
</clipPath>
</defs>
</svg>
