<svg width="24" height="24" viewBox="0 0 24 24" fill="none" xmlns="http://www.w3.org/2000/svg">
<path d="M20.603 6.16652C20.5484 5.45226 20.852 4.78084 20.248 4.21578C19.9314 3.9207 19.5828 3.85754 19.2132 3.85754C18.9413 3.85754 18.6579 3.89115 18.3666 3.89115C18.2978 3.89115 18.2287 3.8882 18.1599 3.8834C17.1188 2.10107 16.9951 0.236748 15.886 1.27232C14.6489 2.42865 13.8797 5.60959 15.1548 7.67038C14.1913 7.0354 13.041 6.6948 11.862 6.69538C8.69243 6.69538 6.12408 9.09521 6.12408 12.0564C6.12408 13.205 6.5138 14.2668 7.17229 15.1395C4.96718 13.9425 1.55655 14.6616 0.318618 15.8175C-0.790854 16.8546 1.20477 16.9698 3.11305 17.943C3.16799 18.6572 2.86325 19.3287 3.46799 19.8937C3.78498 20.1892 4.1332 20.2523 4.50276 20.2523C4.77469 20.2523 5.05729 20.2187 5.3482 20.2187C5.41697 20.2187 5.48693 20.2217 5.5565 20.2265C6.5968 22.0081 6.72131 23.8724 7.83038 22.8368C9.06752 21.6805 9.83629 18.4951 8.55765 16.435C9.52314 17.0747 10.6776 17.4178 11.8612 17.4171C15.0303 17.4171 17.5986 15.0172 17.5986 12.056C17.5986 10.9086 17.2097 9.84788 16.5528 8.97555C18.7583 10.1655 22.1606 9.44533 23.3966 8.29121C24.5065 7.2549 22.5104 7.1393 20.603 6.16652ZM19.2129 4.56405C19.4986 4.56405 19.6053 4.61501 19.7132 4.71547C19.8875 4.87871 19.8915 5.04601 19.8591 5.51911C19.8374 5.83746 19.8124 6.19902 19.9061 6.59825C20.1326 7.56365 20.7943 8.13646 21.4745 8.47587C20.7606 8.71333 20.0085 8.83487 19.2508 8.83521C18.0259 8.83521 16.988 8.49581 16.3275 7.87868C15.0485 6.6832 15.1165 4.53303 15.6856 3.06499C16.0485 3.70206 16.6619 4.32288 17.6986 4.53561C17.9042 4.57734 18.122 4.59766 18.3662 4.59766C18.5386 4.59766 18.6978 4.58842 18.852 4.57956C18.9816 4.57107 19.1034 4.56405 19.2129 4.56405ZM4.50355 19.5454C4.21817 19.5454 4.11146 19.4941 4.00316 19.3937C3.82885 19.2304 3.8249 19.0635 3.85731 18.5908C3.87944 18.2717 3.90395 17.9101 3.81027 17.5109C3.5834 16.5455 2.92175 15.9727 2.24112 15.6333C2.95499 15.3958 3.70707 15.2743 4.46481 15.2739C5.69009 15.2739 6.72802 15.6137 7.38849 16.2308C8.66713 17.4263 8.59954 19.5761 8.03038 21.0441C7.66793 20.4071 7.05411 19.7866 6.01815 19.5746C5.79811 19.5307 5.57358 19.5096 5.3486 19.5115C5.17627 19.5115 5.01737 19.5214 4.86323 19.5303C4.73477 19.5384 4.61303 19.5454 4.50355 19.5454ZM14.2643 16.2338C14.8161 13.4764 12.6366 12.6407 11.9066 12.1118C12.2626 12.6125 12.4222 13.213 12.3581 13.8111C12.2941 14.4093 12.0104 14.9683 11.5552 15.3932C11.2618 15.6683 10.906 15.8782 10.514 16.0075C10.1221 16.1368 9.70405 16.182 9.29084 16.14C8.49456 15.7035 7.84026 15.073 7.39798 14.3159C10.407 14.8281 11.2794 12.6961 11.8465 12.0634L11.8454 12.0594C10.7576 12.7685 9.2529 12.6743 8.28492 11.7694C7.99084 11.495 7.7668 11.162 7.62945 10.7955C7.49211 10.4289 7.44501 10.0381 7.49165 9.65215C7.95855 8.91019 8.63196 8.30036 9.44024 7.88754C8.87938 10.6992 11.1588 11.5113 11.8406 12.039V12.0383C11.4721 11.537 11.3031 10.9309 11.3628 10.3252C11.4225 9.7196 11.7072 9.15259 12.1675 8.72257C12.462 8.44693 12.819 8.23673 13.2122 8.10753C13.6054 7.97832 14.0247 7.93343 14.439 7.97618C15.2357 8.41507 15.8895 9.04831 16.3303 9.808C13.3204 9.28246 12.437 11.392 11.8687 12.042L11.8647 12.0523C11.8671 12.0553 11.8687 12.0583 11.8707 12.0601C12.9596 11.3466 14.4679 11.4389 15.4382 12.3456C15.7316 12.6196 15.9553 12.9518 16.0927 13.3175C16.2302 13.6833 16.2779 14.0732 16.2323 14.4585C15.7619 15.2069 15.0814 15.8209 14.2643 16.2338Z" fill="#FECCBC"/>
</svg>
