<svg width="15" height="21" viewBox="0 0 15 21" fill="none" xmlns="http://www.w3.org/2000/svg">
<path fill-rule="evenodd" clip-rule="evenodd" d="M1.27083 8.40989L0 3.66875L2.91771 0.941146L3.83958 4.38021V2.49479L7.48542 1.38021V3.40781L10.6552 1.89062L10.6193 2.41667L11.2495 0H14.9563L13.5141 4.80729L14.4344 4.57187L13.3161 8.74583C13.3885 8.67552 13.462 8.60469 13.5349 8.53229C13.6338 8.43207 13.7617 8.36537 13.9005 8.34158C14.0392 8.31779 14.182 8.33811 14.3087 8.39968C14.4353 8.46125 14.5395 8.56097 14.6065 8.68482C14.6735 8.80867 14.7 8.95041 14.6823 9.0901L13.3292 19.9208C13.2977 20.1728 13.1752 20.4046 12.9848 20.5726C12.7945 20.7407 12.5492 20.8334 12.2953 20.8333H2.67552C2.42167 20.8333 2.17659 20.7405 1.98631 20.5725C1.79604 20.4044 1.67366 20.1727 1.64219 19.9208L0.288542 9.09271C0.273396 8.9705 0.291943 8.84648 0.342178 8.73405C0.392413 8.62162 0.472425 8.52506 0.573564 8.45481C0.674703 8.38456 0.79312 8.34329 0.916014 8.33547C1.03891 8.32764 1.1616 8.35356 1.27083 8.41042V8.40989ZM11.4391 6.64948L12.9182 6.20573L11.8974 10.0141C11.3172 10.4865 10.7635 10.8734 10.2271 11.174L11.4391 6.64948ZM8.94219 11.7375L9.49479 3.60052L8.14583 4.24583L7.62187 11.9594C8.07018 11.9475 8.51461 11.8728 8.94219 11.7375ZM4.88125 11.2208C5.41615 11.5094 5.93385 11.7141 6.44375 11.8339V2.78646L4.88125 3.26458V11.2203V11.2208ZM2.68646 9.66875C3.0571 9.98627 3.44187 10.2869 3.83958 10.5698V8.40208L2.36094 2.8875L1.16823 4.0026L2.68646 9.66875ZM12.3365 5.10833L10.8979 5.47604L12.0542 1.04167H13.5562L12.3365 5.10833Z" fill="#FECCBC"/>
</svg>
