<svg width="24" height="24" viewBox="0 0 24 24" fill="none" xmlns="http://www.w3.org/2000/svg">
<path d="M14.2599 10.5C14.2599 11.0469 14.3302 11.6953 14.4707 12.4453C14.4863 12.5234 14.615 12.8008 14.857 13.2773C15.0989 13.7539 15.3097 14.3281 15.4892 15C15.6687 15.6719 15.7585 16.4219 15.7585 17.25H14.2599C14.2599 17.2344 14.2482 17.0938 14.2248 16.8281C14.2014 16.5625 14.1702 16.2852 14.1311 15.9961C14.0921 15.707 14.0453 15.3945 13.9907 15.0586C13.936 14.7227 13.8697 14.4102 13.7916 14.1211C13.7136 13.832 13.6199 13.625 13.5107 13.5C13.1516 13.125 12.937 12.7539 12.8668 12.3867C12.7965 12.0195 12.7614 11.3906 12.7614 10.5C12.7614 9.25 13.0541 8.1875 13.6394 7.3125C14.2248 6.4375 14.9311 6 15.7585 6C15.9926 6 16.2424 6.04688 16.5077 6.14062C15.8521 6.40625 15.3136 6.9375 14.8921 7.73438C14.4707 8.53125 14.2599 9.45312 14.2599 10.5ZM9.76431 4.78125C9.76431 5.375 9.83456 6.07031 9.97505 6.86719C10.8336 7.83594 11.2629 9.14844 11.2629 10.8047C11.2629 13.5391 11.0131 15.4375 10.5136 16.5C10.0141 14.2344 9.76431 12.3359 9.76431 10.8047C9.76431 9.60156 9.69407 8.90625 9.55358 8.71875C8.69505 7.75 8.26578 6.4375 8.26578 4.78125C8.26578 3.46875 8.55846 2.34375 9.14383 1.40625C9.72919 0.46875 10.4355 0 11.2629 0C11.497 0 11.7468 0.0546875 12.0121 0.164062C11.3565 0.429688 10.818 0.992188 10.3965 1.85156C9.97505 2.71094 9.76431 3.6875 9.76431 4.78125ZM19.8092 21.1172C19.4814 21.8984 19.056 22.5742 18.5331 23.1445C18.0102 23.7148 17.4599 24 16.8824 24H7.14188C6.56431 24 6.01017 23.7109 5.47944 23.1328C4.9487 22.5547 4.51944 21.8672 4.19163 21.0703C3.92627 20.9141 3.52822 20.6875 2.99748 20.3906C2.46675 20.0938 2.0687 19.8672 1.80334 19.7109C1.53797 19.5547 1.24139 19.3633 0.913582 19.1367C0.585777 18.9102 0.351631 18.707 0.211143 18.5273C0.0706551 18.3477 0.00821608 18.1719 0.0238258 18H24.0004C24.0004 18.2344 23.9302 18.4609 23.7897 18.6797C23.6492 18.8984 23.4189 19.1172 23.0989 19.3359C22.7789 19.5547 22.4785 19.7383 22.1975 19.8867C21.9165 20.0352 21.5224 20.2383 21.015 20.4961C20.5077 20.7539 20.1058 20.9609 19.8092 21.1172Z" fill="#FECCBC"/>
</svg>
